<?xml version="1.0" encoding="UTF-8"?>
<svg id="_線稿" data-name="線稿" xmlns="http://www.w3.org/2000/svg" viewBox="0 0 1351.12 305.09">
  <defs>
    <style>
      .cls-1 {
        fill: #788dac;
      }

      .cls-2 {
        font-size: 80px;
      }

      .cls-2, .cls-3 {
        fill: #f5f5f5;
        font-family: GenRyuMinTW-H, 'GenRyuMin TW';
      }

      .cls-3 {
        font-size: 70px;
      }

      .cls-4 {
        fill: none;
        stroke: #000;
        stroke-miterlimit: 10;
      }
    </style>
  </defs>
  <path class="cls-1" d="M203.47,170.76c-54.95-14.19-173.87,12.22-173.87,12.22,0,0,138.57-74.17,251.81-72.47l2-33.75c1.49-6.91,15.78-13.98,22.85-13.98l17.75,2.34s185.89,25.06,374.87,25.06c123.19,0,234.16-8.86,309.56-22.04,0,0,43.83-9.66,54.2-.64,15.94,13.85,15.08,29.44,15.08,29.44l1.7,23.45s25.88-6.61,97.81,14.6c39.88,11.76,135.27,46.98,135.27,46.98-134.5-22.23-180.26-1.34-180.26-1.34,49.87,24.12,80.68,73.95,80.68,73.95-58.14-33.07-259.63-19.1-259.63-19.1,13.41-23.97,14.6-43.11,14.6-43.11,0,0-124.07,8.79-269.32,9.16-155.63.4-250.95-18.05-250.95-18.05,3.11,20.34-6.83,52.49-6.83,52.49-59.01,2.52-109.7-27.42-214.27-15.9-40.09,4.42-70.64,32.04-70.64,32.04-34.22-56.26,47.61-81.35,47.61-81.35"/>
  <text class="cls-2" transform="translate(360.4 142.87) rotate(10.94)"><tspan x="0" y="0"> </tspan></text>
  <text class="cls-2" transform="translate(380.22 146.69) rotate(10.06)"><tspan x="0" y="0"> </tspan></text>
  <text class="cls-2" transform="translate(399.53 150.12) rotate(9.35)"><tspan x="0" y="0"> </tspan></text>
  <text class="cls-2" transform="translate(418.86 153.3) rotate(8.7)"><tspan x="0" y="0"> </tspan></text>
  <text class="cls-2" transform="translate(438.24 156.26) rotate(8.08)"><tspan x="0" y="0"> </tspan></text>
  <text class="cls-3" transform="translate(457.44 159.29) rotate(6.73)"><tspan x="0" y="0">記</tspan></text>
  <text class="cls-3" transform="translate(526.7 167.17) rotate(5.44)"><tspan x="0" y="0"> </tspan></text>
  <text class="cls-3" transform="translate(543.55 169.08) rotate(4.13)"><tspan x="0" y="0">憶</tspan></text>
  <text class="cls-3" transform="translate(613.07 173.8) rotate(2.78)"><tspan x="0" y="0"> </tspan></text>
  <text class="cls-3" transform="translate(629.99 174.95) rotate(1.36)"><tspan x="0" y="0">對</tspan></text>
  <text class="cls-3" transform="translate(699.37 176.63) rotate(-1.09)"><tspan x="0" y="0"> </tspan></text>
  <text class="cls-3" transform="translate(716.52 176.61) rotate(-1.74)"><tspan x="0" y="0">對</tspan></text>
  <text class="cls-3" transform="translate(787.11 174.48) rotate(-4.62)"><tspan x="0" y="0"> </tspan></text>
  <text class="cls-3" transform="translate(804.84 173.41) rotate(-5.4)"><tspan x="0" y="0">碰</tspan></text>
  <path class="cls-4" d="M307.38,188.27c1,.52.3,3.01,5.64,4.77l.06.03h0c25.08,7.12,112.34,37.75,126.46,41.98-18.32,3.13-44.16-1.94-73.9-7.78-23.46-4.61-47.72-9.37-71.65-10.77-51.52-4.09-86.12,5.39-106.08,14.06-19.04,8.27-28.77,17.42-30.91,19.59-8.39-13.83-10.3-26.84-5.68-38.68,10.88-27.89,54.65-40.46,55.09-40.58l1.74-.49-1.75-.47c-12.29-3.34-27.7-4.63-44.24-4.63-50.3,0-110.96,11.99-125.39,15,61.27-34.39,124.34-51.6,166.73-60,43.65-8.65,74.79-9.96,78.88-10.1M447.55,184.49,309.17,190.9,447.55,184.49c.67,26.55-5.53,49.57-5.86,50.78l-.88-.26M442.1,183.11c-54.66-9.58-95.36-6.61-114.76-5.15-.55.04-1.14.08-1.76.12-4.82.31-11.41.74-14.62,3.48-2.16,1.84-3.28,4.62-3.13,7.41-6.09-9.42-30.63-51.23-24.96-105.84.64-6.14,3.67-11.62,8.55-15.45,4.93-3.87,11.06-5.53,17.27-4.67l5.52.77c36.99,5.15,135.23,18.83,266.97,24.5,166.15,7.15,321.4-1.09,461.42-24.48,6.99-1.17,14.17.64,20.24,5.08,7.05,5.16,11.81,13.15,13.06,21.9,4.03,28.25,5.83,82.91-12.3,111.35-.14-2.55-1.22-4.96-3.22-7.03-6.21-6.45-20.42-9.11-40.03-7.5-235.02,19.31-442.49,19.32-578.26-4.49ZM1063.6,202.13c-13.21,23.02-92,31.27-107.57,32.63-.75.06-1.34.11-1.8.15,1.98-3.27,8.96-16.1,14.67-42.59M1079.4,120.39,1063.47,204.18,1063.47,204.18,979.05,233.24,1079.4,120.39c48.38-8.93,199.92,49.55,225.45,59.61-150.54-18.74-171.8-.18-172.64.63l-.58.56.76.27c35.5,12.78,74.21,64.22,80.5,73.12-41.66-19.68-111.97-23.22-166.93-23.22-26.44,0-70.75,2.25-87.56,3.18"/>
</svg>